<mxfile host="app.diagrams.net" modified="2020-10-16T11:03:33.318Z" agent="5.0 (Macintosh; Intel Mac OS X 10_15_7) AppleWebKit/537.36 (KHTML, like Gecko) Chrome/86.0.4240.80 Safari/537.36" etag="iLPBxhKhqxJIa6wcEzyg" version="13.8.0" type="github">
  <diagram id="bX7mvtzpEqVoAApVilFV" name="Page-1">
    <mxGraphModel dx="1395" dy="5924" grid="1" gridSize="10" guides="1" tooltips="1" connect="1" arrows="1" fold="1" page="1" pageScale="1" pageWidth="1169" pageHeight="1654" math="0" shadow="0">
      <root>
        <mxCell id="0" />
        <mxCell id="1" parent="0" />
        <mxCell id="vamxgRtiZG5zS1sHOiIg-1" value="&lt;font style=&quot;font-size: 36px&quot;&gt;Biometría y medio ambiente DISENYO&lt;/font&gt;" style="text;html=1;strokeColor=none;fillColor=none;align=center;verticalAlign=middle;whiteSpace=wrap;rounded=0;" parent="1" vertex="1">
          <mxGeometry x="850" y="-4900" width="650" height="20" as="geometry" />
        </mxCell>
        <mxCell id="vamxgRtiZG5zS1sHOiIg-2" style="edgeStyle=orthogonalEdgeStyle;rounded=0;orthogonalLoop=1;jettySize=auto;html=1;exitX=0.25;exitY=1;exitDx=0;exitDy=0;entryX=0.209;entryY=1.25;entryDx=0;entryDy=0;entryPerimeter=0;" parent="1" source="vamxgRtiZG5zS1sHOiIg-1" target="vamxgRtiZG5zS1sHOiIg-1" edge="1">
          <mxGeometry relative="1" as="geometry" />
        </mxCell>
        <mxCell id="0Yh-uIjZzOTEhQlzrfxx-1" value="" style="whiteSpace=wrap;html=1;imageAspect=0;" parent="1" vertex="1">
          <mxGeometry x="30" y="-4820" width="720" height="1350" as="geometry" />
        </mxCell>
        <mxCell id="0Yh-uIjZzOTEhQlzrfxx-2" value="&lt;font style=&quot;font-size: 24px&quot;&gt;Diseño de Arduinio&lt;/font&gt;" style="text;html=1;strokeColor=none;fillColor=none;align=center;verticalAlign=middle;whiteSpace=wrap;rounded=0;" parent="1" vertex="1">
          <mxGeometry x="210" y="-4790" width="340" height="20" as="geometry" />
        </mxCell>
        <mxCell id="0Yh-uIjZzOTEhQlzrfxx-3" value="" style="whiteSpace=wrap;html=1;" parent="1" vertex="1">
          <mxGeometry x="800" y="-4820" width="800" height="1350" as="geometry" />
        </mxCell>
        <mxCell id="0Yh-uIjZzOTEhQlzrfxx-4" value="&lt;font style=&quot;font-size: 24px&quot;&gt;Diseño de Android&lt;/font&gt;" style="text;html=1;strokeColor=none;fillColor=none;align=center;verticalAlign=middle;whiteSpace=wrap;rounded=0;" parent="1" vertex="1">
          <mxGeometry x="950" y="-4810" width="390" height="20" as="geometry" />
        </mxCell>
        <mxCell id="0Yh-uIjZzOTEhQlzrfxx-5" value="" style="whiteSpace=wrap;html=1;" parent="1" vertex="1">
          <mxGeometry x="1659" y="-4820" width="771" height="1350" as="geometry" />
        </mxCell>
        <mxCell id="0Yh-uIjZzOTEhQlzrfxx-6" value="&lt;font style=&quot;font-size: 35px&quot;&gt;&lt;u&gt;&lt;b&gt;Diseño de Tablas de BBDD y servidor REST&lt;/b&gt;&lt;/u&gt;&lt;/font&gt;" style="text;html=1;strokeColor=none;fillColor=none;align=center;verticalAlign=middle;whiteSpace=wrap;rounded=0;" parent="1" vertex="1">
          <mxGeometry x="1679.5" y="-4810" width="730" height="100" as="geometry" />
        </mxCell>
        <mxCell id="KxvWBxQLd5Ioe-8BL5_c-2" value="&lt;font style=&quot;font-size: 36px&quot;&gt;Text&lt;/font&gt;" style="text;html=1;strokeColor=none;fillColor=none;align=center;verticalAlign=middle;whiteSpace=wrap;rounded=0;" vertex="1" parent="1">
          <mxGeometry x="1870" y="-4380" width="220" height="30" as="geometry" />
        </mxCell>
        <mxCell id="KxvWBxQLd5Ioe-8BL5_c-3" value="&lt;span style=&quot;font-size: 36px&quot;&gt;Lógica FAKE&lt;/span&gt;" style="text;html=1;strokeColor=none;fillColor=none;align=center;verticalAlign=middle;whiteSpace=wrap;rounded=0;" vertex="1" parent="1">
          <mxGeometry x="1710" y="-4660" width="220" height="30" as="geometry" />
        </mxCell>
      </root>
    </mxGraphModel>
  </diagram>
</mxfile>
